<svg xmlns="http://www.w3.org/2000/svg" viewBox="0 0 460 485">
  <defs>
    <style>
      .logo_cls-1 { fill: red; }
      .logo_cls-2 { fill: none; stroke: red; stroke-linecap: round; stroke-width: 7px; }
    </style>
  </defs>
  <g transform="matrix(1, 0, 0, 1, 4, 3)">
    <g>
      <path class="logo_cls-2" d="M 1.5 470.5 C 22.03 476.06 40.59 478.21 57.33 477.81 C 158 475.45 192.84 380.9 192.84 380.9" style="stroke-dasharray: 232.98; stroke-dashoffset: 232.98px;">
        <animate attributeName="stroke-dashoffset" values="232.98px;0px" begin="0s" dur="0.58s" fill="freeze" keyTimes="0; 1" calcMode="spline" keySplines="0.42 0 1 1"/>
      </path>
      <path class="logo_cls-2" d="M 202.5 322.42 C 202.5 285.5 179.5 250.5 179.5 250.5 C 155.025 193.065 182.889 127.348 240.68 104.93 C 319.2 73.195 402.629 138.361 390.852 222.228 C 385.387 261.151 359.571 294.202 323.13 308.93" style="stroke-dashoffset: 598.56px; stroke-dasharray: 598.56;">
        <animate attributeName="stroke-dashoffset" values="598.56px;0px" begin="0.58s" dur="1.27s" fill="freeze" keyTimes="0; 1" calcMode="spline" keySplines="0 0 0.58 1"/>
      </path>
    </g>
    <g>
      <path class="logo_cls-2" d="M 57.32 477.43 L 107.73 342.94" style="stroke-dasharray: 143.66; stroke-dashoffset: 143.66px;">
        <animate attributeName="stroke-dashoffset" values="143.66px;0px" dur="0.25s" fill="freeze" keyTimes="0; 1" begin="0.33s" calcMode="spline" keySplines="0.42 0 1 1"/>
      </path>
      <path class="logo_cls-2" d="M 130.61 290.2 L 197.5 115.49 C 153.66 104.77 158.1 49.97 158.46 47.2" style="stroke-dasharray: 273.13; stroke-dashoffset: 273.13px;">
        <animate attributeName="stroke-dashoffset" values="273.13px;0px" begin="0.58s" dur="0.25s" fill="freeze" keyTimes="0; 1"/>
      </path>
      <path class="logo_cls-2" d="M 65 293 L 165 30 C 167.7 23 172.8 17.32 178.22 13 C 184.349 8.148 191.189 4.269 198.5 1.5" style="stroke-dasharray: 326.57; stroke-dashoffset: 326.57px;">
        <animate attributeName="stroke-dashoffset" values="326.57px;0px" begin="0.58s" dur="0.25s" fill="freeze" keyTimes="0; 1"/>
      </path>
    </g>
    <g>
      <path class="logo_cls-2" d="M 198.5 1.5 L 221 60" style="stroke-dasharray: 62.68; stroke-dashoffset: 62.68px;">
        <animate attributeName="stroke-dashoffset" values="62.68px;0px" begin="0.83s" dur="0.13s" fill="freeze" keyTimes="0; 1"/>
      </path>
      <path class="logo_cls-2" d="M 240.68 104.93 L 282.39 208.13" style="stroke-dasharray: 112; stroke-dashoffset: 112px;">
        <animate attributeName="stroke-dashoffset" values="111.31px;0px" begin="0.96s" dur="0.13s" fill="freeze" keyTimes="0; 1"/>
      </path>
      <path class="logo_cls-2" d="M 304.5 263.5 L 356.48 391.37" style="stroke-dasharray: 138.16; stroke-dashoffset: 138.16px;">
        <animate attributeName="stroke-dashoffset" values="138.16px;0px" begin="1.18s" dur="0.09s" fill="freeze" keyTimes="0; 1"/>
      </path>
      <path class="logo_cls-2" d="M 282.7 208 C 281.241 204.517 280.493 200.777 280.5 197 C 280.491 175.061 304.235 161.339 323.24 172.3 C 328.812 175.514 333.133 180.519 335.5 186.5 L 450.5 469.5" style="stroke-dasharray: 395.62; stroke-dashoffset: 395.62px;">
        <animate attributeName="stroke-dashoffset" values="395.62px;0px" begin="1.09s" dur="0.25s" fill="freeze" keyTimes="0; 1"/>
      </path>
    </g>
    <g>
      <path class="logo_cls-2" d="M 432.5 425.5 L 75.5 265.5" style="stroke-dasharray: 392; stroke-dashoffset: 392px;">
        <animate attributeName="stroke-dashoffset" values="391.21px;0px" begin="1.31s" dur="0.25s" fill="freeze" keyTimes="0; 1"/>
      </path>
      <path class="logo_cls-2" d="M 382.5 465.5 L 56.27 319.99" style="stroke-dasharray: 358; stroke-dashoffset: 358px;">
        <animate attributeName="stroke-dashoffset" values="357.21px;0px" begin="1.33s" dur="0.23s" fill="freeze" keyTimes="0; 1"/>
      </path>
    </g>
    <g>
      <path class="logo_cls-2" d="M 139.72 266.41 L 335.5 186.5" style="stroke-dasharray: 212; stroke-dashoffset: 212px;">
        <animate attributeName="stroke-dashoffset" values="211.46px;0px" begin="1.56s" dur="0.25s" fill="freeze" keyTimes="0; 1" calcMode="spline" keySplines="0 0 0.58 1"/>
      </path>
    </g>
    <g>
      <path class="logo_cls-1" d="M 130.61 290.2 L 75.5 265.5 L 158.41 47.18 C 158.15 50.01 153.71 104.81 197.55 115.53 Z" style="fill-opacity: 0;">
        <animate attributeName="fill-opacity" values="0;1" begin="1.81s" dur="1s" fill="freeze" keyTimes="0; 1" calcMode="spline" keySplines="0.25 0.1 0.25 1"/>
      </path>
      <path class="logo_cls-1" d="M 335.5 186.5 L 282.7 208 C 274.036 187.836 290.449 165.854 312.244 168.432 C 322.747 169.675 331.699 176.63 335.5 186.5 Z" style="fill-opacity: 0;">
        <animate attributeName="fill-opacity" values="0;1" begin="1.81s" dur="1s" fill="freeze" keyTimes="0; 1" calcMode="spline" keySplines="0.25 0.1 0.25 1"/>
      </path>
      <path class="logo_cls-1" d="M 370 271.44 L 432.58 425.44 L 356.48 391.37 L 323.14 308.89 C 341.917 300.971 358.136 288.009 370 271.44 Z" style="fill-opacity: 0;">
        <animate attributeName="fill-opacity" values="0;1" begin="1.81s" dur="1s" fill="freeze" keyTimes="0; 1" calcMode="spline" keySplines="0.25 0.1 0.25 1"/>
      </path>
    </g>
  </g>
</svg>